<?xml version="1.0" encoding="UTF-8"?>
<svg id="Layer_1" data-name="Layer 1" xmlns="http://www.w3.org/2000/svg" viewBox="0 0 233.43 135.32">
  <defs>
    <style>
      .cls-1 {
        fill: none;
      }
    </style>
  </defs>
  <path class="cls-1" d="M157.51,105.84c-1.08.98-1.62,2.22-1.62,3.71,0,1.58.65,2.86,1.94,3.82,1.3.96,3.1,1.44,5.4,1.44s4.19-.5,5.94-1.51c1.75-1.01,3.04-2.5,3.85-4.46v-4.46h-9.36c-3.02,0-5.08.49-6.16,1.48Z"/>
  <path class="cls-1" d="M41.58,40.57c-1.08.98-1.62,2.22-1.62,3.71,0,1.58.65,2.86,1.94,3.82,1.3.96,3.1,1.44,5.4,1.44s4.19-.5,5.94-1.51c1.75-1.01,3.04-2.5,3.85-4.46v-4.46h-9.36c-3.02,0-5.08.49-6.16,1.48Z"/>
  <path d="M13.03,56.52c0,2.02-.46,3.54-1.37,4.57-.91,1.03-2.18,1.55-3.82,1.55-2.11,0-3.86-.5-5.26-1.51l-2.59,6.7c1.06.72,2.34,1.27,3.85,1.66,1.51.38,3.08.58,4.72.58,4.32,0,7.64-1.24,9.97-3.71,2.33-2.47,3.49-5.82,3.49-10.04V17.14h-9v39.38Z"/>
  <path d="M17.5,0c-1.68,0-3.06.53-4.14,1.58-1.08,1.06-1.62,2.3-1.62,3.74,0,1.54.54,2.83,1.62,3.89,1.08,1.06,2.46,1.58,4.14,1.58s3.12-.54,4.18-1.62c1.06-1.08,1.58-2.39,1.58-3.92s-.54-2.8-1.62-3.78c-1.08-.98-2.46-1.48-4.14-1.48Z"/>
  <path d="M57.1,46.15v-2.59c-.82,1.97-2.1,3.46-3.85,4.46-1.75,1.01-3.73,1.51-5.94,1.51s-4.1-.48-5.4-1.44c-1.3-.96-1.94-2.23-1.94-3.82,0-1.49.54-2.72,1.62-3.71,1.08-.98,3.13-1.48,6.16-1.48h9.36v-5.98h-10.01c-3.89,0-7.01.5-9.36,1.51-2.35,1.01-4.04,2.38-5.08,4.1-1.03,1.73-1.55,3.67-1.55,5.83s.59,4.19,1.76,5.94c1.18,1.75,2.84,3.12,5,4.1,2.16.98,4.68,1.48,7.56,1.48,3.46,0,6.29-.62,8.5-1.87,1.52-.86,2.72-1.97,3.6-3.3v-3.18l-.43-1.58Z"/>
  <path d="M58.25,33.12v5.98h-1.15v4.46l1.44,5.4c-.27.7-.61,1.35-1.01,1.95v4.67h8.5v-22.54c0-5.57-1.51-9.7-4.54-12.38-3.02-2.69-7.34-4.03-12.96-4.03-3.07,0-6.02.41-8.86,1.22-2.83.82-5.3,2.02-7.42,3.6l3.53,6.55c1.49-1.2,3.26-2.14,5.33-2.81,2.06-.67,4.15-1.01,6.26-1.01,3.26,0,5.7.73,7.31,2.2,1.61,1.46,2.41,3.52,2.41,6.16v.58h1.15Z"/>
  <path d="M57.1,43.56v2.59l.43,1.58v3.18c.4-.6.74-1.25,1.01-1.95l-1.44-5.4Z"/>
  <rect x="57.1" y="33.12" width="1.15" height="5.98"/>
  <path d="M99.72,25.2v-8.57c-3.6,0-6.65.68-9.14,2.05-1.85,1.01-3.31,2.36-4.39,4.04v5l-1.01-3.1c.29-.68.63-1.31,1.01-1.9v-5.59h-8.57v38.45h.18v-26.82h8.81v6.67c.24-3.25,1.22-5.72,2.97-7.43,2.02-1.97,4.75-2.95,8.21-2.95.29,0,.6.01.94.04.34.02.67.06,1.01.11Z"/>
  <path d="M86.18,27.72v-5c-.38.59-.72,1.22-1.01,1.9l1.01,3.1Z"/>
  <path d="M134.96,19.19c-3.1-1.7-6.64-2.56-10.62-2.56s-7.44.85-10.51,2.56c-3.07,1.7-5.5,4.02-7.27,6.95-1.78,2.93-2.66,6.34-2.66,10.22s.89,7.18,2.66,10.15c1.78,2.98,4.21,5.32,7.31,7.02,3.1,1.7,6.59,2.56,10.48,2.56s7.46-.85,10.58-2.56c3.12-1.7,5.56-4.03,7.31-6.98,1.75-2.95,2.63-6.35,2.63-10.19s-.88-7.3-2.63-10.22c-1.75-2.93-4.18-5.24-7.27-6.95ZM134.31,42.44c-.98,1.85-2.34,3.26-4.07,4.25-1.73.98-3.7,1.48-5.9,1.48s-4.03-.49-5.76-1.48c-1.73-.98-3.1-2.4-4.1-4.25-1.01-1.85-1.51-3.97-1.51-6.37s.5-4.57,1.51-6.37c1.01-1.8,2.38-3.19,4.1-4.18,1.73-.98,3.67-1.48,5.83-1.48s4.1.49,5.83,1.48c1.73.98,3.08,2.38,4.07,4.18.98,1.8,1.48,3.92,1.48,6.37s-.49,4.52-1.48,6.37Z"/>
  <path d="M58.22,83.7c-2.38-1.2-5.12-1.8-8.24-1.8-3.36,0-6.33.67-8.89,2.02-1.54.8-2.84,1.81-3.92,3.01v5.92l-1.87-3.24c.52-.98,1.15-1.87,1.87-2.68v-19.5h-8.93v53.42h8.93v-19.44c0-2.59.44-4.74,1.33-6.44.89-1.7,2.15-2.99,3.78-3.85,1.63-.86,3.5-1.3,5.62-1.3,2.93,0,5.18.84,6.77,2.52,1.58,1.68,2.38,4.22,2.38,7.63v20.88h9v-22.03c0-3.89-.71-7.08-2.12-9.58-1.42-2.5-3.31-4.34-5.69-5.54Z"/>
  <path d="M37.16,92.84v-5.92c-.72.8-1.35,1.69-1.87,2.68l1.87,3.24Z"/>
  <path d="M82.02,73.55c-1.66,0-3.02-.5-4.09-1.51-.05-.05-.09-.1-.14-.15v48.96h8.81v-49.39c-.15.18-.28.37-.46.54-1.04,1.03-2.42,1.54-4.12,1.54Z"/>
  <path d="M86.54,55.58h-8.75v9.35s.08-.1.14-.15c1.07-1,2.43-1.51,4.09-1.51s3.02.47,4.09,1.4c.19.17.34.35.5.53v-29.78c-.04.51-.06,1.03-.06,1.57v18.58Z"/>
  <path d="M77.79,28.77v26.82h8.75v-18.58c0-.54.02-1.07.06-1.57v-6.67h-8.81Z"/>
  <path d="M119.46,90.36c.34.03.67.06,1.01.11v-8.57c-3.6,0-6.65.68-9.14,2.05-1.85,1.01-3.31,2.36-4.39,4.04v5l-1.01-3.1c.29-.68.63-1.31,1.01-1.9v-5.59h-8.57v38.45h8.93v-18.58c0-4.03,1.01-7.03,3.02-9,2.02-1.97,4.75-2.95,8.21-2.95.29,0,.6.01.94.04Z"/>
  <path d="M106.93,92.99v-5c-.38.59-.72,1.22-1.01,1.9l1.01,3.1Z"/>
  <path d="M128.96,121.79c0,2.02-.46,3.54-1.37,4.57-.91,1.03-2.18,1.55-3.82,1.55-2.11,0-3.86-.5-5.26-1.51l-2.59,6.7c1.06.72,2.34,1.27,3.85,1.66,1.51.38,3.08.58,4.72.58,4.32,0,7.64-1.24,9.97-3.71,2.33-2.47,3.49-5.82,3.49-10.04v-39.17h-9v39.38Z"/>
  <path d="M133.43,65.27c-1.68,0-3.06.53-4.14,1.58-1.08,1.06-1.62,2.3-1.62,3.74,0,1.54.54,2.83,1.62,3.89,1.08,1.06,2.46,1.58,4.14,1.58s3.12-.54,4.18-1.62c1.06-1.08,1.58-2.39,1.58-3.92s-.54-2.8-1.62-3.78c-1.08-.98-2.46-1.48-4.14-1.48Z"/>
  <path d="M173.03,111.42v-2.59c-.82,1.97-2.1,3.46-3.85,4.46-1.75,1.01-3.73,1.51-5.94,1.51s-4.1-.48-5.4-1.44c-1.3-.96-1.94-2.23-1.94-3.82,0-1.49.54-2.72,1.62-3.71,1.08-.98,3.13-1.48,6.16-1.48h9.36v-5.98h-10.01c-3.89,0-7.01.5-9.36,1.51-2.35,1.01-4.04,2.38-5.08,4.1-1.03,1.73-1.55,3.67-1.55,5.83s.59,4.19,1.76,5.94c1.17,1.75,2.84,3.12,5,4.1s4.68,1.48,7.56,1.48c3.46,0,6.29-.62,8.5-1.87,1.52-.86,2.72-1.96,3.6-3.3v-3.18l-.43-1.58Z"/>
  <path d="M164.46,81.9c-3.07,0-6.02.41-8.86,1.22-2.83.82-5.3,2.02-7.42,3.6l3.53,6.55c1.49-1.2,3.26-2.13,5.33-2.81,2.06-.67,4.15-1.01,6.26-1.01,3.26,0,5.7.73,7.31,2.2,1.61,1.46,2.41,3.52,2.41,6.16v.58h1.15v5.98h-1.15v4.46l1.44,5.4c-.27.7-.61,1.35-1.01,1.95v4.67h8.5v-22.54c0-5.57-1.51-9.7-4.54-12.38-3.02-2.69-7.34-4.03-12.96-4.03Z"/>
  <path d="M173.03,108.83v2.59l.43,1.58v3.18c.4-.6.74-1.25,1.01-1.95l-1.44-5.4Z"/>
  <rect x="173.03" y="98.39" width="1.15" height="5.98"/>
  <polygon points="201.03 100.98 202.47 99.65 202.47 67.43 193.54 67.43 193.54 120.85 202.47 120.85 202.47 110.71 200.82 112.28 201.03 100.98"/>
  <polygon points="208.38 103.5 214.07 96.3 215.81 98.51 231.92 82.4 221.12 82.4 202.47 99.65 202.47 110.71 209.1 104.39 208.38 103.5"/>
  <polygon points="201.03 100.98 200.82 112.28 202.47 110.71 202.47 99.65 201.03 100.98"/>
  <polygon points="210.03 103.5 209.1 104.39 222.56 120.85 233.43 120.85 215.81 98.51 214.86 99.47 210.03 103.5"/>
  <polygon points="208.38 103.5 209.1 104.39 210.03 103.5 214.86 99.47 215.81 98.51 214.07 96.3 208.38 103.5"/>
</svg>